<svg viewBox="0 0 603 214.91" xmlns="http://www.w3.org/2000/svg"><path d="m86.38 0c-4.51 9.71-8.82 18-12.31 26.7-7.12 17.65-11.17 35.78-7.8 55s19.77 36 39 40.31c20.77 4.71 41.08 2 61.15-3.13 32.56-8.27 65-17.18 97.42-25.84q55.64-14.85 111.27-29.73 46.55-12.41 93.12-24.75 66.11-17.63 132.22-35.35a3 3 0 0 1 2.55.45c-13.67 5.92-27.33 11.89-41 17.76q-34.75 14.9-69.56 29.7-45.91 19.62-91.78 39.28-53.36 22.9-106.66 45.88-41.55 17.84-83.16 35.58c-19.09 8.16-38 16.62-57.28 24.38-29.72 12-60.3 20.82-92.79 18.21-30.48-2.45-55.47-20.86-60.05-53.72-2.26-16.23 1-32.15 6.49-47.59a183.57 183.57 0 0 1 28-52c15.37-19.78 31.79-38.69 47.79-57.94.73-.87 1.66-1.58 3.38-3.2z" fill="#231f20" fill-rule="evenodd"/></svg>