<svg viewBox="0 0 199.92 41.06" xmlns="http://www.w3.org/2000/svg"><g transform="translate(-1.27 -1.26)"><path d="m40.28 11.89a9.52 9.52 0 0 0 -5.72-8.89l-.48-.24.46-.28a9.24 9.24 0 0 1 1.84-.77c.92-.21.91-.24.48-.27h-.76a9.14 9.14 0 0 0 -3.54.69h-.11-.11a18.59 18.59 0 0 0 -5.52-.89h-.82c-8.71.62-15.69 5.27-20.89 13.93-3.61 6-4.3 12.57-3.62 15.09.74 2.76 2.62 4.16 5.6 4.16a10.44 10.44 0 0 0 1.23-.08c5.31-.62 9.05-6.39 11.78-10.61l.18-.27a16.18 16.18 0 0 0 8.59.65l.45-.1.5-.12c5.45-1.29 10.46-5.89 10.46-12zm-21.92 7.49-.17.32-.25-.11a6.85 6.85 0 0 1 -2.17-2.77c-.06-.17-.17-.41-.22-.32a2.12 2.12 0 0 0 0 .32c0 1.85.57 3.65 1.6 4.4l.21.15s-5.83 9.74-8.89 10.63a4.55 4.55 0 0 1 -1.27.19c-1 0-2.63-.42-2.79-3.2 0-.19-.77-5.28 3.77-12.73 4.94-8.09 9.46-11.76 16.13-12.9a14.75 14.75 0 0 1 6.22.35l-.19.15-.45.35c-4.89 3.84-8.57 9.79-11.53 15.17zm18.28-7.58a12.4 12.4 0 0 1 -8 9.86h-.11a21.07 21.07 0 0 1 -3.2.51 11 11 0 0 1 -4-.7c2.67-4.81 6.67-11.79 11.27-16.78l.16-.17.2.11a7.51 7.51 0 0 1 3.77 6.27 5.75 5.75 0 0 1 -.09.9z"/><path d="m200.27 22.21c-2.48 4.2-5.63 7.18-9.74 8.24 1.19-1.32 1.57-5.25 1.71-7.41.05-.83.41-4.8 1.93-5.2a.61.61 0 0 0 .34-.76c-.27-.91-1.33-.93-2.22-.92-4 0-6.54 2.57-9.36 5.26l-.31.34-.05.07-1.75 1.95a41.49 41.49 0 0 1 -7 5.25c-1.81 1.12-3.09 1.11-3.39 1.39 1.41-1.34 1.58-4.42 1.74-6 .28-2.78.08-5.84 1.46-6.39.21-.09.28-.59.19-.92a1.56 1.56 0 0 0 -1.64-.9c-3.7.05-6.72 2-9.48 5.08l-.41.47-.29.24c-2.43 2.4-8 8.77-13.64 8.82-2.12 0-4.82-.09-4.84-2.57 6.52-2.06 9.48-6.54 9.46-9a3.56 3.56 0 0 0 -3.64-3.7 6.41 6.41 0 0 0 -3 .6c-2.48 1-6.08 5.27-5.74 10.94v.71a15.37 15.37 0 0 1 -7 2.85c-3.28.23-5.13-.56-5.27-4.1 0-.53-.12-.74.11-1 6-6 10.89-13.15 12.63-17.44.84-2.08 1.46-5.89-1.8-6.5-4.42-.83-9.55 5.5-12.36 14.88a32.26 32.26 0 0 0 -1.59 8.35 35.18 35.18 0 0 1 -7.18 5.36 8.09 8.09 0 0 1 -2.76.64c-3.61 0-2.46-3.41-2.45-3.45.65-2.33 3.78-5.19 4.89-5.59 1.31-.47 1.39-2.12-.05-2.25-1.66-.14-4.84 1-7.21-1.73a2.2 2.2 0 0 0 .19-.92 2.09 2.09 0 1 0 -4.17.06 2.2 2.2 0 0 0 .88 1.74 19.22 19.22 0 0 1 -2.46 5.01c-2.61 3.26-7.22 7-12.29 7.09-1.75 0-4.73-.07-5.28-2 6.16-2.11 10.57-6.89 10.57-9.41a3.57 3.57 0 0 0 -3.69-3.65c-5.26-.19-9.91 6.13-9.83 11.78v.43a18.88 18.88 0 0 1 -9.74 2 14.16 14.16 0 0 0 3.73-8.76c0-2.18-1-3.76-2.62-4.18a5.47 5.47 0 0 0 -4.34.64c-.81.48-1.54 1.2-1.93 1.46.15-.34.83-1.73.45-1.74-.64 0-1.9-.07-3-.1-.36 0-1-.07-.83.3a2.52 2.52 0 0 1 .28 2.25c-2.61 3.1-10.54 11-14.74 10.65-1.62-.13-1.71-.8-1.59-2s1.48-3.48 2-4.44 1.2-2.14 1.78-3.14c.31-.51.43-.79.74-1.28.83-1.3 1.71-1.35 1.75-1.76 0-.11-.24-.1-.24-.1l-3.09-.15c-.62 0-.86.62-1.2 1.26a3.57 3.57 0 0 0 -3.16-2c-5.73-.19-11.73 5.22-11.94 10.93-.11 2.71 2 4.59 5 4.62a7.14 7.14 0 0 0 5.43-2.57l.11.59c.52 1.44 2.18 2 3.59 2.1 4.88.3 8.69-3.4 11.77-6.06-2.8 4.95-6.6 11.58-9.29 15.85l3.92-.87 6.47-10.89a4.33 4.33 0 0 0 3.84 2.38 8.34 8.34 0 0 0 4.73-1.08c5.7.79 9.76-.3 12.69-1.87 1.12 2 3.6 2.83 5.9 3a15 15 0 0 0 4.87-.41l.82-.23a20 20 0 0 0 9.83-6.87c.05-.06 1.46-1.9 2.08-2.87a32.33 32.33 0 0 0 1.74-3c1.4 1.29 3.8 1.47 4.46 1.63-.29 0-8.75 7.29-3.75 10.94.31.25 3.83 1.86 6.86.17.47-.26 5.21-2.67 7.54-5 .23 2.88 2.26 5.51 6.59 5.51a18.84 18.84 0 0 0 9.19-3c1.28 2.43 4.39 3.13 6.94 3.11 4.73 0 8.62-3.2 11.23-5.43.08 3.9 3.76 5.46 8 5.28a18.48 18.48 0 0 0 12.17-5.5c-.13 3.46 2.49 5.63 6.75 5.45a18.3 18.3 0 0 0 14.9-8zm-153.66 5.5c-1.73 2.6-7.12 3.87-6.82-.53.23-3.31 5-8.22 8.44-8.08a2.79 2.79 0 0 1 1.68.59 1.27 1.27 0 0 1 .57 1.44zm21.1 3.15a2.53 2.53 0 0 1 -2.64-2.86c0-.08 2.21-4.27 3.1-5.62 1.4-2.11 3.73-3.29 5.49-3.08 1.5.18 1.6 1.12 1.6 2.4.01 3.3-3.37 9.17-7.55 9.17zm19.59-5.86a9.88 9.88 0 0 1 4.41-6.23 3.93 3.93 0 0 1 2.12-.58 1.31 1.31 0 0 1 1.46 1.42c0 1-1.05 2.24-1.68 2.93a15.42 15.42 0 0 1 -6.48 4.3 7.53 7.53 0 0 1 .17-1.84zm47.47-18.1c1.67-2.34 3-3.63 4.32-3.06.5.22.55.76.45 1.42-.67 4.4-7.12 15.13-11 17.53-.28.16.84-8.32 6.23-15.89zm8.55 18.1c.34-2.76 1.09-5.66 3.46-6.8a3.55 3.55 0 0 1 2.16-.57 1.43 1.43 0 0 1 1.39 1.63c0 1.65-1.49 3.29-2.22 3.92a14.08 14.08 0 0 1 -4.85 3zm22.35 5.84a3.67 3.67 0 0 1 -4.05-3.38 1.51 1.51 0 0 0 1-.43 2 2 0 0 0 .2-2.7c.63-.67 1.84-2.17 1.84-2.17 2.16-2.23 4.29-3.8 5.61-3.71-1.63 3.55-.18 12.18-4.6 12.39zm19.71.12c-2.52 0-3.45-1.42-3.58-3.19a1.49 1.49 0 0 0 1.3-.41 2 2 0 0 0 -.07-2.94c2.44-2.7 5.21-5.39 7.33-6.09-2.04 3.42-.36 12.67-4.99 12.67z"/></g></svg>