<svg enable-background="new 0 0 603 214.9" viewBox="0 0 603 214.9" xmlns="http://www.w3.org/2000/svg"><path d="m86.4 0c-4.5 9.7-8.8 18-12.3 26.7-7.1 17.6-11.2 35.8-7.8 55s19.8 36 39 40.3c20.8 4.7 41.1 2 61.2-3.1 32.6-8.3 65-17.2 97.4-25.8 37.1-9.9 74.2-19.8 111.3-29.7 31-8.3 62.1-16.5 93.1-24.8 44-11.8 88.1-23.6 132.2-35.4.9-.2 1.8-.1 2.5.5-13.7 5.9-27.3 11.9-41 17.8-23.2 9.9-46.4 19.8-69.6 29.7-30.6 13.1-61.2 26.2-91.8 39.3-35.6 15.3-71.1 30.6-106.7 45.9-27.7 11.9-55.4 23.8-83.2 35.6-19.1 8.2-38 16.6-57.3 24.4-29.7 12-60.3 20.8-92.8 18.2-30.5-2.5-55.5-20.9-60-53.7-2.3-16.2 1-32.2 6.5-47.6 6.5-18.7 15.9-36.3 28-52 15.5-19.9 31.9-38.8 47.9-58.1.7-.9 1.7-1.6 3.4-3.2z" fill="#fff"/></svg>